<svg width="45" height="45" viewBox="0 0 45 45" fill="none" xmlns="http://www.w3.org/2000/svg">
<path d="M44.8125 44.8125H36.6875V33.8125H8.125V44.8125H0V22.4062C0 19.1354 0.5625 16.125 1.6875 13.375C2.8125 10.625 4.375 8.26042 6.375 6.28125C8.375 4.30208 10.7396 2.76042 13.4688 1.65625C16.1979 0.552083 19.1771 0 22.4062 0H40.7188C41.2812 0 41.8125 0.104167 42.3125 0.3125C42.8125 0.520833 43.25 0.8125 43.625 1.1875C44 1.5625 44.2917 2 44.5 2.5C44.7083 3 44.8125 3.53125 44.8125 4.09375V44.8125ZM8.125 25.6875H36.6875V8.125H22.4062C22.1562 8.125 21.625 8.16667 20.8125 8.25C20.0208 8.3125 19.0938 8.48958 18.0312 8.78125C16.9896 9.07292 15.8854 9.52083 14.7188 10.125C13.5521 10.7292 12.4792 11.5625 11.5 12.625C10.5208 13.6875 9.70833 15.0208 9.0625 16.625C8.4375 18.2083 8.125 20.1354 8.125 22.4062V25.6875Z" fill="url(#paint0_linear_926_51)"/>
<defs>
<linearGradient id="paint0_linear_926_51" x1="-583.257" y1="-247.688" x2="312.743" y2="135.812" gradientUnits="userSpaceOnUse">
<stop offset="0.1875" stop-color="white"/>
<stop offset="0.260417" stop-color="white" stop-opacity="0.51"/>
<stop offset="0.385417" stop-color="white"/>
<stop offset="0.606697" stop-color="white"/>
<stop offset="0.7001" stop-color="white" stop-opacity="0.47"/>
<stop offset="0.834346" stop-color="white"/>
</linearGradient>
</defs>
</svg>
