<svg width="45" height="45" viewBox="0 0 45 45" fill="none" xmlns="http://www.w3.org/2000/svg">
<path d="M44.7812 26.0625C44.7812 28.7917 44.3021 31.3021 43.3438 33.5938C42.4062 35.8854 41.1042 37.8646 39.4375 39.5312C37.7708 41.1771 35.7917 42.4688 33.5 43.4062C31.2083 44.3438 28.7188 44.8125 26.0312 44.8125H4.09375C3.51042 44.8125 2.96875 44.7083 2.46875 44.5C1.96875 44.2917 1.53125 44.0104 1.15625 43.6562C0.802083 43.2812 0.520833 42.8438 0.3125 42.3438C0.104167 41.8438 0 41.3021 0 40.7188V4.09375C0 3.53125 0.104167 3 0.3125 2.5C0.520833 2 0.802083 1.5625 1.15625 1.1875C1.53125 0.8125 1.96875 0.520833 2.46875 0.3125C2.96875 0.104167 3.51042 0 4.09375 0H26.0312C28.7188 0 31.2083 0.46875 33.5 1.40625C35.7917 2.34375 37.7708 3.64583 39.4375 5.3125C41.1042 6.95833 42.4062 8.9375 43.3438 11.25C44.3021 13.5417 44.7812 16.0417 44.7812 18.75V26.0625ZM36.6562 18.75C36.6562 17.1667 36.3958 15.7188 35.875 14.4062C35.375 13.0938 34.6562 11.9792 33.7188 11.0625C32.7812 10.125 31.6562 9.40625 30.3438 8.90625C29.0521 8.38542 27.6146 8.125 26.0312 8.125H8.125V36.6875H26.0312C27.6146 36.6875 29.0521 36.4375 30.3438 35.9375C31.6562 35.4167 32.7812 34.6979 33.7188 33.7812C34.6562 32.8438 35.375 31.7292 35.875 30.4375C36.3958 29.125 36.6562 27.6667 36.6562 26.0625V18.75Z" fill="url(#paint0_linear_926_50)"/>
<defs>
<linearGradient id="paint0_linear_926_50" x1="-509.911" y1="-247.688" x2="386.089" y2="135.812" gradientUnits="userSpaceOnUse">
<stop offset="0.1875" stop-color="white"/>
<stop offset="0.260417" stop-color="white" stop-opacity="0.51"/>
<stop offset="0.385417" stop-color="white"/>
<stop offset="0.606697" stop-color="white"/>
<stop offset="0.7001" stop-color="white" stop-opacity="0.47"/>
<stop offset="0.834346" stop-color="white"/>
</linearGradient>
</defs>
</svg>
