<svg width="41" height="45" viewBox="0 0 41 45" fill="none" xmlns="http://www.w3.org/2000/svg">
<path d="M37.0312 26.5H11.375V18.3125H37.0312V26.5ZM40.6875 44.8125H11.375C10.25 44.8125 9.02083 44.6146 7.6875 44.2188C6.35417 43.8229 5.11458 43.1771 3.96875 42.2812C2.84375 41.3646 1.89583 40.1875 1.125 38.75C0.375 37.2917 0 35.5104 0 33.4062V4.09375C0 3.53125 0.104167 3 0.3125 2.5C0.520833 2 0.802083 1.5625 1.15625 1.1875C1.53125 0.8125 1.96875 0.520833 2.46875 0.3125C2.96875 0.104167 3.51042 0 4.09375 0H40.6875V8.125H8.125V33.4062C8.125 34.4688 8.40625 35.2812 8.96875 35.8438C9.53125 36.4062 10.3542 36.6875 11.4375 36.6875H40.6875V44.8125Z" fill="url(#paint0_linear_926_46)"/>
<defs>
<linearGradient id="paint0_linear_926_46" x1="-329.966" y1="-247.688" x2="566.034" y2="135.813" gradientUnits="userSpaceOnUse">
<stop offset="0.1875" stop-color="white"/>
<stop offset="0.260417" stop-color="white" stop-opacity="0.51"/>
<stop offset="0.385417" stop-color="white"/>
<stop offset="0.606697" stop-color="white"/>
<stop offset="0.7001" stop-color="white" stop-opacity="0.47"/>
<stop offset="0.834346" stop-color="white"/>
</linearGradient>
</defs>
</svg>
