<svg width="45" height="45" viewBox="0 0 45 45" fill="none" xmlns="http://www.w3.org/2000/svg">
<path d="M44.8125 40.7188C44.8125 41.3021 44.7083 41.8438 44.5 42.3438C44.2917 42.8438 44 43.2812 43.625 43.6562C43.2708 44.0104 42.8438 44.2917 42.3438 44.5C41.8438 44.7083 41.3021 44.8125 40.7188 44.8125H26.0625H11.4062C10.6562 44.8125 9.84375 44.7292 8.96875 44.5625C8.11458 44.375 7.26042 44.0938 6.40625 43.7188C5.57292 43.3438 4.77083 42.8646 4 42.2812C3.22917 41.6771 2.54167 40.9583 1.9375 40.125C1.35417 39.2708 0.885417 38.2917 0.53125 37.1875C0.177083 36.0625 0 34.8021 0 33.4062V11.4062C0 10.6562 0.0833333 9.85417 0.25 9C0.4375 8.125 0.71875 7.27083 1.09375 6.4375C1.46875 5.58333 1.95833 4.77083 2.5625 4C3.16667 3.22917 3.88542 2.55208 4.71875 1.96875C5.57292 1.36458 6.55208 0.885417 7.65625 0.53125C8.76042 0.177083 10.0104 0 11.4062 0H44.4375V8.125H11.4062C10.3438 8.125 9.53125 8.40625 8.96875 8.96875C8.40625 9.53125 8.125 10.3646 8.125 11.4688V33.4062C8.125 34.4479 8.40625 35.2604 8.96875 35.8438C9.55208 36.4062 10.3646 36.6875 11.4062 36.6875H36.6875V26.5H15.0625V18.3125H40.7188C41.3021 18.3125 41.8438 18.4271 42.3438 18.6562C42.8438 18.8646 43.2708 19.1562 43.625 19.5312C44 19.9062 44.2917 20.3438 44.5 20.8438C44.7083 21.3229 44.8125 21.8438 44.8125 22.4062V40.7188Z" fill="url(#paint0_linear_926_45)"/>
<defs>
<linearGradient id="paint0_linear_926_45" x1="-255.432" y1="-247.688" x2="640.568" y2="135.812" gradientUnits="userSpaceOnUse">
<stop offset="0.1875" stop-color="white"/>
<stop offset="0.260417" stop-color="white" stop-opacity="0.51"/>
<stop offset="0.385417" stop-color="white"/>
<stop offset="0.606697" stop-color="white"/>
<stop offset="0.7001" stop-color="white" stop-opacity="0.47"/>
<stop offset="0.834346" stop-color="white"/>
</linearGradient>
</defs>
</svg>
