<svg width="49" height="47" viewBox="0 0 49 47" fill="none" xmlns="http://www.w3.org/2000/svg">
<path d="M48.4375 27.3125C48.4375 30.0417 47.9688 32.5521 47.0312 34.8438C46.0938 37.1354 44.7917 39.1146 43.125 40.7812C41.4583 42.4479 39.4792 43.75 37.1875 44.6875C34.9167 45.6042 32.4375 46.0625 29.75 46.0625H18.75C16.0625 46.0625 13.5729 45.6042 11.2812 44.6875C8.98958 43.75 7.01042 42.4479 5.34375 40.7812C3.67708 39.1146 2.36458 37.1354 1.40625 34.8438C0.46875 32.5521 0 30.0417 0 27.3125V18.75C0 16.0417 0.46875 13.5417 1.40625 11.25C2.36458 8.9375 3.67708 6.95833 5.34375 5.3125C7.01042 3.64583 8.98958 2.34375 11.2812 1.40625C13.5729 0.46875 16.0625 0 18.75 0H29.75C32.4375 0 34.9167 0.46875 37.1875 1.40625C39.4792 2.34375 41.4583 3.64583 43.125 5.3125C44.7917 6.95833 46.0938 8.9375 47.0312 11.25C47.9688 13.5417 48.4375 16.0417 48.4375 18.75V27.3125ZM40.3125 18.75C40.3125 17.1458 40.0521 15.6979 39.5312 14.4062C39.0312 13.0938 38.3125 11.9792 37.375 11.0625C36.4583 10.125 35.3438 9.40625 34.0312 8.90625C32.7396 8.38542 31.3125 8.125 29.75 8.125H18.75C17.1667 8.125 15.7188 8.38542 14.4062 8.90625C13.1146 9.40625 12 10.125 11.0625 11.0625C10.125 11.9792 9.39583 13.0938 8.875 14.4062C8.375 15.6979 8.125 17.1458 8.125 18.75V27.3125C8.125 28.9167 8.375 30.375 8.875 31.6875C9.39583 32.9792 10.125 34.0938 11.0625 35.0312C12 35.9479 13.1146 36.6667 14.4062 37.1875C15.7188 37.6875 17.1667 37.9375 18.75 37.9375H29.6875C31.2708 37.9375 32.7083 37.6875 34 37.1875C35.3125 36.6667 36.4375 35.9479 37.375 35.0312C38.3125 34.0938 39.0312 32.9792 39.5312 31.6875C40.0521 30.375 40.3125 28.9167 40.3125 27.3125V18.75Z" fill="url(#paint0_linear_926_43)"/>
<defs>
<linearGradient id="paint0_linear_926_43" x1="-102.427" y1="-247.063" x2="793.573" y2="136.437" gradientUnits="userSpaceOnUse">
<stop offset="0.1875" stop-color="white"/>
<stop offset="0.260417" stop-color="white" stop-opacity="0.51"/>
<stop offset="0.385417" stop-color="white"/>
<stop offset="0.606697" stop-color="white"/>
<stop offset="0.7001" stop-color="white" stop-opacity="0.47"/>
<stop offset="0.834346" stop-color="white"/>
</linearGradient>
</defs>
</svg>
