<svg width="229" height="229" viewBox="0 0 229 229" fill="none" xmlns="http://www.w3.org/2000/svg">
<circle cx="114.142" cy="114.142" r="112.622" transform="rotate(90.7785 114.142 114.142)" fill="url(#paint0_linear_350_43)" fill-opacity="0.15"/>
<g opacity="0.05" filter="url(#filter0_i_350_43)">
<path d="M129.963 108.123H115.031C114.758 106.191 114.201 104.475 113.36 102.975C112.52 101.453 111.44 100.157 110.122 99.089C108.804 98.0208 107.281 97.2026 105.554 96.6344C103.849 96.0662 101.997 95.7821 99.9968 95.7821C96.3831 95.7821 93.2354 96.6799 90.5536 98.4753C87.8718 100.248 85.7922 102.839 84.315 106.248C82.8377 109.634 82.0991 113.748 82.0991 118.589C82.0991 123.566 82.8377 127.748 84.315 131.134C85.815 134.521 87.9059 137.078 90.5877 138.805C93.2695 140.532 96.3718 141.396 99.8945 141.396C101.872 141.396 103.701 141.134 105.383 140.612C107.088 140.089 108.599 139.328 109.917 138.328C111.235 137.305 112.326 136.066 113.19 134.612C114.076 133.157 114.69 131.498 115.031 129.634L129.963 129.703C129.576 132.907 128.61 135.998 127.065 138.975C125.542 141.93 123.485 144.578 120.895 146.919C118.326 149.237 115.258 151.078 111.69 152.441C108.145 153.782 104.133 154.453 99.6559 154.453C93.4286 154.453 87.8604 153.044 82.9513 150.225C78.065 147.407 74.2013 143.328 71.3604 137.987C68.5422 132.646 67.1331 126.18 67.1331 118.589C67.1331 110.975 68.565 104.498 71.4286 99.1571C74.2922 93.8162 78.1786 89.748 83.0877 86.9526C87.9968 84.1344 93.5195 82.7253 99.6559 82.7253C103.701 82.7253 107.451 83.2935 110.906 84.4299C114.383 85.5662 117.463 87.2253 120.145 89.4071C122.826 91.5662 125.008 94.214 126.69 97.3503C128.395 100.487 129.485 104.078 129.963 108.123Z" fill="white"/>
</g>
<defs>
<filter id="filter0_i_350_43" x="67.1331" y="82.7246" width="65.8296" height="75.7285" filterUnits="userSpaceOnUse" color-interpolation-filters="sRGB">
<feFlood flood-opacity="0" result="BackgroundImageFix"/>
<feBlend mode="normal" in="SourceGraphic" in2="BackgroundImageFix" result="shape"/>
<feColorMatrix in="SourceAlpha" type="matrix" values="0 0 0 0 0 0 0 0 0 0 0 0 0 0 0 0 0 0 127 0" result="hardAlpha"/>
<feOffset dx="3" dy="4"/>
<feGaussianBlur stdDeviation="2"/>
<feComposite in2="hardAlpha" operator="arithmetic" k2="-1" k3="1"/>
<feColorMatrix type="matrix" values="0 0 0 0 0 0 0 0 0 0 0 0 0 0 0 0 0 0 0.25 0"/>
<feBlend mode="normal" in2="shape" result="effect1_innerShadow_350_43"/>
</filter>
<linearGradient id="paint0_linear_350_43" x1="114.142" y1="1.52002" x2="114.142" y2="226.765" gradientUnits="userSpaceOnUse">
<stop stop-color="white"/>
<stop offset="1" stop-color="white" stop-opacity="0"/>
</linearGradient>
</defs>
</svg>
