<svg width="236" height="209" viewBox="0 0 236 209" fill="none" xmlns="http://www.w3.org/2000/svg">
<path d="M147.591 98.8263L124.684 145.196C121.918 150.84 113.898 150.654 111.363 144.916L85.1374 85.9978L71.3101 119.445H27.9384L112.055 206.446C115.327 209.851 120.628 209.851 123.9 206.446L208.062 119.445H157.777L147.591 98.8263ZM218.341 19.5693L217.234 18.4031C193.498 -6.13437 154.643 -6.13437 130.86 18.4031L118 31.7448L105.141 18.4498C81.4041 -6.13437 42.5032 -6.13437 18.7663 18.4498L17.6601 19.5693C-4.78626 42.8006 -5.75417 79.7934 14.2955 104.517H61.4927L78.0394 64.3059C80.5283 58.2882 88.9169 58.1482 91.5902 64.1193L118.415 124.437L141 78.7672C143.719 73.2625 151.462 73.2625 154.182 78.7672L166.903 104.517H221.705C241.755 79.7934 240.787 42.8006 218.341 19.5693Z" fill="#FFC425"/>
</svg>
