<svg width="739" height="47" viewBox="0 0 739 47" fill="none" xmlns="http://www.w3.org/2000/svg">
<path d="M42.1125 46H5.05005C4.46672 46 3.92505 45.8958 3.42505 45.6875C2.92505 45.4792 2.48755 45.1979 2.11255 44.8438C1.75838 44.4688 1.47713 44.0312 1.2688 43.5312C1.06047 43.0312 0.956299 42.4896 0.956299 41.9062V1.1875H9.0813V37.875H42.1125V46Z" fill="url(#paint0_linear_921_41)"/>
<path d="M115.865 27.875C115.865 30.6042 115.396 33.1146 114.459 35.4062C113.521 37.6979 112.219 39.6771 110.553 41.3438C108.886 43.0104 106.907 44.3125 104.615 45.25C102.344 46.1667 99.8651 46.625 97.1776 46.625H86.1776C83.4901 46.625 81.0005 46.1667 78.7088 45.25C76.4171 44.3125 74.438 43.0104 72.7713 41.3438C71.1046 39.6771 69.7921 37.6979 68.8338 35.4062C67.8963 33.1146 67.4276 30.6042 67.4276 27.875V19.3125C67.4276 16.6042 67.8963 14.1042 68.8338 11.8125C69.7921 9.5 71.1046 7.52083 72.7713 5.875C74.438 4.20833 76.4171 2.90625 78.7088 1.96875C81.0005 1.03125 83.4901 0.5625 86.1776 0.5625H97.1776C99.8651 0.5625 102.344 1.03125 104.615 1.96875C106.907 2.90625 108.886 4.20833 110.553 5.875C112.219 7.52083 113.521 9.5 114.459 11.8125C115.396 14.1042 115.865 16.6042 115.865 19.3125V27.875ZM107.74 19.3125C107.74 17.7083 107.48 16.2604 106.959 14.9688C106.459 13.6562 105.74 12.5417 104.803 11.625C103.886 10.6875 102.771 9.96875 101.459 9.46875C100.167 8.94792 98.7401 8.6875 97.1776 8.6875H86.1776C84.5942 8.6875 83.1463 8.94792 81.8338 9.46875C80.5421 9.96875 79.4276 10.6875 78.4901 11.625C77.5526 12.5417 76.8234 13.6562 76.3026 14.9688C75.8026 16.2604 75.5526 17.7083 75.5526 19.3125V27.875C75.5526 29.4792 75.8026 30.9375 76.3026 32.25C76.8234 33.5417 77.5526 34.6562 78.4901 35.5938C79.4276 36.5104 80.5421 37.2292 81.8338 37.75C83.1463 38.25 84.5942 38.5 86.1776 38.5H97.1151C98.6984 38.5 100.136 38.25 101.428 37.75C102.74 37.2292 103.865 36.5104 104.803 35.5938C105.74 34.6562 106.459 33.5417 106.959 32.25C107.48 30.9375 107.74 29.4792 107.74 27.875V19.3125Z" fill="url(#paint1_linear_921_41)"/>
<path d="M190.118 42.5312C190.118 43.1146 190.003 43.6562 189.774 44.1562C189.565 44.6562 189.274 45.0938 188.899 45.4688C188.545 45.8229 188.118 46.1042 187.618 46.3125C187.118 46.5208 186.586 46.625 186.024 46.625C185.524 46.625 185.013 46.5312 184.493 46.3438C183.993 46.1562 183.545 45.8542 183.149 45.4375L153.461 14.4375V46H145.336V4.65625C145.336 3.82292 145.565 3.07292 146.024 2.40625C146.503 1.71875 147.107 1.20833 147.836 0.875C148.607 0.5625 149.399 0.489583 150.211 0.65625C151.024 0.802083 151.722 1.17708 152.305 1.78125L181.993 32.75V1.1875H190.118V42.5312Z" fill="url(#paint2_linear_921_41)"/>
<path d="M265.245 41.9062C265.245 42.4896 265.141 43.0312 264.933 43.5312C264.724 44.0312 264.433 44.4688 264.058 44.8438C263.703 45.1979 263.276 45.4792 262.776 45.6875C262.276 45.8958 261.735 46 261.151 46H231.839C231.089 46 230.276 45.9167 229.401 45.75C228.547 45.5625 227.693 45.2812 226.839 44.9062C226.005 44.5312 225.203 44.0521 224.433 43.4688C223.662 42.8646 222.974 42.1458 222.37 41.3125C221.787 40.4583 221.318 39.4792 220.964 38.375C220.61 37.25 220.433 35.9896 220.433 34.5938V12.5938C220.433 11.8438 220.516 11.0417 220.683 10.1875C220.87 9.3125 221.151 8.45833 221.526 7.625C221.901 6.77083 222.391 5.95833 222.995 5.1875C223.599 4.41667 224.318 3.73958 225.151 3.15625C226.005 2.55208 226.985 2.07292 228.089 1.71875C229.193 1.36458 230.443 1.1875 231.839 1.1875H264.87V9.3125H231.839C230.776 9.3125 229.964 9.59375 229.401 10.1562C228.839 10.7188 228.558 11.5521 228.558 12.6562V34.5938C228.558 35.6354 228.839 36.4479 229.401 37.0312C229.985 37.5938 230.797 37.875 231.839 37.875H257.12V27.6875H235.495V19.5H261.151C261.735 19.5 262.276 19.6146 262.776 19.8438C263.276 20.0521 263.703 20.3438 264.058 20.7188C264.433 21.0938 264.724 21.5312 264.933 22.0312C265.141 22.5104 265.245 23.0312 265.245 23.5938V41.9062Z" fill="url(#paint3_linear_921_41)"/>
<path d="M331.998 27.6875H306.341V19.5H331.998V27.6875ZM335.654 46H306.341C305.216 46 303.987 45.8021 302.654 45.4062C301.32 45.0104 300.081 44.3646 298.935 43.4688C297.81 42.5521 296.862 41.375 296.091 39.9375C295.341 38.4792 294.966 36.6979 294.966 34.5938V5.28125C294.966 4.71875 295.07 4.1875 295.279 3.6875C295.487 3.1875 295.768 2.75 296.123 2.375C296.498 2 296.935 1.70833 297.435 1.5C297.935 1.29167 298.477 1.1875 299.06 1.1875H335.654V9.3125H303.091V34.5938C303.091 35.6562 303.373 36.4688 303.935 37.0312C304.498 37.5938 305.32 37.875 306.404 37.875H335.654V46Z" fill="url(#paint4_linear_921_41)"/>
<path d="M409.813 1.1875L388.594 44.4062C388.26 45.0729 387.76 45.6042 387.094 46C386.448 46.4167 385.729 46.625 384.938 46.625C384.167 46.625 383.448 46.4167 382.781 46C382.135 45.6042 381.635 45.0729 381.281 44.4062L360.094 1.1875H369.188L384.938 33.4688L400.75 1.1875H409.813Z" fill="url(#paint5_linear_921_41)"/>
<path d="M444.034 46H435.909V1.1875H444.034V46Z" fill="url(#paint6_linear_921_41)"/>
<path d="M519.693 27.25C519.693 29.9792 519.213 32.4896 518.255 34.7812C517.318 37.0729 516.015 39.0521 514.349 40.7188C512.682 42.3646 510.703 43.6562 508.411 44.5938C506.12 45.5312 503.63 46 500.943 46H479.005C478.422 46 477.88 45.8958 477.38 45.6875C476.88 45.4792 476.443 45.1979 476.068 44.8438C475.713 44.4688 475.432 44.0312 475.224 43.5312C475.015 43.0312 474.911 42.4896 474.911 41.9062V5.28125C474.911 4.71875 475.015 4.1875 475.224 3.6875C475.432 3.1875 475.713 2.75 476.068 2.375C476.443 2 476.88 1.70833 477.38 1.5C477.88 1.29167 478.422 1.1875 479.005 1.1875H500.943C503.63 1.1875 506.12 1.65625 508.411 2.59375C510.703 3.53125 512.682 4.83333 514.349 6.5C516.015 8.14583 517.318 10.125 518.255 12.4375C519.213 14.7292 519.693 17.2292 519.693 19.9375V27.25ZM511.568 19.9375C511.568 18.3542 511.307 16.9062 510.786 15.5938C510.286 14.2812 509.568 13.1667 508.63 12.25C507.693 11.3125 506.568 10.5938 505.255 10.0938C503.963 9.57292 502.526 9.3125 500.943 9.3125H483.036V37.875H500.943C502.526 37.875 503.963 37.625 505.255 37.125C506.568 36.6042 507.693 35.8854 508.63 34.9688C509.568 34.0312 510.286 32.9167 510.786 31.625C511.307 30.3125 511.568 28.8542 511.568 27.25V19.9375Z" fill="url(#paint7_linear_921_41)"/>
<path d="M593.07 46H584.945V35H556.383V46H548.258V23.5938C548.258 20.3229 548.82 17.3125 549.945 14.5625C551.07 11.8125 552.633 9.44792 554.633 7.46875C556.633 5.48958 558.997 3.94792 561.726 2.84375C564.455 1.73958 567.435 1.1875 570.664 1.1875H588.976C589.539 1.1875 590.07 1.29167 590.57 1.5C591.07 1.70833 591.508 2 591.883 2.375C592.258 2.75 592.549 3.1875 592.758 3.6875C592.966 4.1875 593.07 4.71875 593.07 5.28125V46ZM556.383 26.875H584.945V9.3125H570.664C570.414 9.3125 569.883 9.35417 569.07 9.4375C568.278 9.5 567.351 9.67708 566.289 9.96875C565.247 10.2604 564.143 10.7083 562.976 11.3125C561.81 11.9167 560.737 12.75 559.758 13.8125C558.778 14.875 557.966 16.2083 557.32 17.8125C556.695 19.3958 556.383 21.3229 556.383 23.5938V26.875Z" fill="url(#paint8_linear_921_41)"/>
<path d="M668.698 27.25C668.698 29.9792 668.218 32.4896 667.26 34.7812C666.323 37.0729 665.02 39.0521 663.354 40.7188C661.687 42.3646 659.708 43.6562 657.416 44.5938C655.125 45.5312 652.635 46 649.948 46H628.01C627.427 46 626.885 45.8958 626.385 45.6875C625.885 45.4792 625.448 45.1979 625.073 44.8438C624.718 44.4688 624.437 44.0312 624.229 43.5312C624.02 43.0312 623.916 42.4896 623.916 41.9062V5.28125C623.916 4.71875 624.02 4.1875 624.229 3.6875C624.437 3.1875 624.718 2.75 625.073 2.375C625.448 2 625.885 1.70833 626.385 1.5C626.885 1.29167 627.427 1.1875 628.01 1.1875H649.948C652.635 1.1875 655.125 1.65625 657.416 2.59375C659.708 3.53125 661.687 4.83333 663.354 6.5C665.02 8.14583 666.323 10.125 667.26 12.4375C668.218 14.7292 668.698 17.2292 668.698 19.9375V27.25ZM660.573 19.9375C660.573 18.3542 660.312 16.9062 659.791 15.5938C659.291 14.2812 658.573 13.1667 657.635 12.25C656.698 11.3125 655.573 10.5938 654.26 10.0938C652.968 9.57292 651.531 9.3125 649.948 9.3125H632.041V37.875H649.948C651.531 37.875 652.968 37.625 654.26 37.125C655.573 36.6042 656.698 35.8854 657.635 34.9688C658.573 34.0312 659.291 32.9167 659.791 31.625C660.312 30.3125 660.573 28.8542 660.573 27.25V19.9375Z" fill="url(#paint9_linear_921_41)"/>
<path d="M734.95 27.6875H709.294V19.5H734.95V27.6875ZM738.606 46H709.294C708.169 46 706.94 45.8021 705.606 45.4062C704.273 45.0104 703.033 44.3646 701.888 43.4688C700.763 42.5521 699.815 41.375 699.044 39.9375C698.294 38.4792 697.919 36.6979 697.919 34.5938V5.28125C697.919 4.71875 698.023 4.1875 698.231 3.6875C698.44 3.1875 698.721 2.75 699.075 2.375C699.45 2 699.888 1.70833 700.388 1.5C700.888 1.29167 701.429 1.1875 702.013 1.1875H738.606V9.3125H706.044V34.5938C706.044 35.6562 706.325 36.4688 706.888 37.0312C707.45 37.5938 708.273 37.875 709.356 37.875H738.606V46Z" fill="url(#paint10_linear_921_41)"/>
<defs>
<linearGradient id="paint0_linear_921_41" x1="-34.9999" y1="-246.5" x2="861" y2="137" gradientUnits="userSpaceOnUse">
<stop offset="0.1875" stop-color="white"/>
<stop offset="0.260417" stop-color="white" stop-opacity="0.51"/>
<stop offset="0.385417" stop-color="white"/>
<stop offset="0.606697" stop-color="white"/>
<stop offset="0.7001" stop-color="white" stop-opacity="0.47"/>
<stop offset="0.834346" stop-color="white"/>
</linearGradient>
<linearGradient id="paint1_linear_921_41" x1="-34.9999" y1="-246.5" x2="861" y2="137" gradientUnits="userSpaceOnUse">
<stop offset="0.1875" stop-color="white"/>
<stop offset="0.260417" stop-color="white" stop-opacity="0.51"/>
<stop offset="0.385417" stop-color="white"/>
<stop offset="0.606697" stop-color="white"/>
<stop offset="0.7001" stop-color="white" stop-opacity="0.47"/>
<stop offset="0.834346" stop-color="white"/>
</linearGradient>
<linearGradient id="paint2_linear_921_41" x1="-34.9999" y1="-246.5" x2="861" y2="137" gradientUnits="userSpaceOnUse">
<stop offset="0.1875" stop-color="white"/>
<stop offset="0.260417" stop-color="white" stop-opacity="0.51"/>
<stop offset="0.385417" stop-color="white"/>
<stop offset="0.606697" stop-color="white"/>
<stop offset="0.7001" stop-color="white" stop-opacity="0.47"/>
<stop offset="0.834346" stop-color="white"/>
</linearGradient>
<linearGradient id="paint3_linear_921_41" x1="-34.9999" y1="-246.5" x2="861" y2="137" gradientUnits="userSpaceOnUse">
<stop offset="0.1875" stop-color="white"/>
<stop offset="0.260417" stop-color="white" stop-opacity="0.51"/>
<stop offset="0.385417" stop-color="white"/>
<stop offset="0.606697" stop-color="white"/>
<stop offset="0.7001" stop-color="white" stop-opacity="0.47"/>
<stop offset="0.834346" stop-color="white"/>
</linearGradient>
<linearGradient id="paint4_linear_921_41" x1="-34.9999" y1="-246.5" x2="861" y2="137" gradientUnits="userSpaceOnUse">
<stop offset="0.1875" stop-color="white"/>
<stop offset="0.260417" stop-color="white" stop-opacity="0.51"/>
<stop offset="0.385417" stop-color="white"/>
<stop offset="0.606697" stop-color="white"/>
<stop offset="0.7001" stop-color="white" stop-opacity="0.47"/>
<stop offset="0.834346" stop-color="white"/>
</linearGradient>
<linearGradient id="paint5_linear_921_41" x1="-34.9999" y1="-246.5" x2="861" y2="137" gradientUnits="userSpaceOnUse">
<stop offset="0.1875" stop-color="white"/>
<stop offset="0.260417" stop-color="white" stop-opacity="0.51"/>
<stop offset="0.385417" stop-color="white"/>
<stop offset="0.606697" stop-color="white"/>
<stop offset="0.7001" stop-color="white" stop-opacity="0.47"/>
<stop offset="0.834346" stop-color="white"/>
</linearGradient>
<linearGradient id="paint6_linear_921_41" x1="-34.9999" y1="-246.5" x2="861" y2="137" gradientUnits="userSpaceOnUse">
<stop offset="0.1875" stop-color="white"/>
<stop offset="0.260417" stop-color="white" stop-opacity="0.51"/>
<stop offset="0.385417" stop-color="white"/>
<stop offset="0.606697" stop-color="white"/>
<stop offset="0.7001" stop-color="white" stop-opacity="0.47"/>
<stop offset="0.834346" stop-color="white"/>
</linearGradient>
<linearGradient id="paint7_linear_921_41" x1="-34.9999" y1="-246.5" x2="861" y2="137" gradientUnits="userSpaceOnUse">
<stop offset="0.1875" stop-color="white"/>
<stop offset="0.260417" stop-color="white" stop-opacity="0.51"/>
<stop offset="0.385417" stop-color="white"/>
<stop offset="0.606697" stop-color="white"/>
<stop offset="0.7001" stop-color="white" stop-opacity="0.47"/>
<stop offset="0.834346" stop-color="white"/>
</linearGradient>
<linearGradient id="paint8_linear_921_41" x1="-34.9999" y1="-246.5" x2="861" y2="137" gradientUnits="userSpaceOnUse">
<stop offset="0.1875" stop-color="white"/>
<stop offset="0.260417" stop-color="white" stop-opacity="0.51"/>
<stop offset="0.385417" stop-color="white"/>
<stop offset="0.606697" stop-color="white"/>
<stop offset="0.7001" stop-color="white" stop-opacity="0.47"/>
<stop offset="0.834346" stop-color="white"/>
</linearGradient>
<linearGradient id="paint9_linear_921_41" x1="-34.9999" y1="-246.5" x2="861" y2="137" gradientUnits="userSpaceOnUse">
<stop offset="0.1875" stop-color="white"/>
<stop offset="0.260417" stop-color="white" stop-opacity="0.51"/>
<stop offset="0.385417" stop-color="white"/>
<stop offset="0.606697" stop-color="white"/>
<stop offset="0.7001" stop-color="white" stop-opacity="0.47"/>
<stop offset="0.834346" stop-color="white"/>
</linearGradient>
<linearGradient id="paint10_linear_921_41" x1="-34.9999" y1="-246.5" x2="861" y2="137" gradientUnits="userSpaceOnUse">
<stop offset="0.1875" stop-color="white"/>
<stop offset="0.260417" stop-color="white" stop-opacity="0.51"/>
<stop offset="0.385417" stop-color="white"/>
<stop offset="0.606697" stop-color="white"/>
<stop offset="0.7001" stop-color="white" stop-opacity="0.47"/>
<stop offset="0.834346" stop-color="white"/>
</linearGradient>
</defs>
</svg>
